# xmcd
#
# Track frame offsets:
#	150
#	18533
#	30252
#	45754
#	62345
#	76968
#	91664
#	106527
#	121278
#	135919
#	145878
#	158177
#	173486
#	187387
#	204647
#	223605
#	237019
#	249876
#	267205
#	279783
#
# Disc length: 3956 seconds
#
# Revision: 1
# Processed by: cddbd v1.5.2PL0 Copyright (c) Steve Scherf et al.
# Submitted via: audiograbber 1.81.03
#
DISCID=f20f7214
DTITLE=Various Artist - CMC Rocks the Hunter CD2
DYEAR=2012
DGENRE=Country
TTITLE0=Lee Kernaghan - People Like Us
TTITLE1=Jasmine Rae - Pink Guitar
TTITLE2=McAlister Kemp - Hard Work
TTITLE3=Sunny Cowgirls - Naughty Side
TTITLE4=Kasey Chambers - Beautiful Mess
TTITLE5=Adam Harvey - Falling Into Place
TTITLE6=Amber Lawrence - Women Like Me (Don't Like Girls Like You)
TTITLE7=Troy Cassar-Daley - Chasin' Rodeo
TTITLE8=Jetty Road - I'm A Dreamer
TTITLE9=Pete Denahy - Sort Of Dunno Nothin'
TTITLE10=Shane Nicholson - Bad Machines
TTITLE11=Harmony James - Pride
TTITLE12=Davidson Brothers, The - My Heart Can't Believe My Eyes
TTITLE13=James Blundell - Move Into The City
TTITLE14=Busby Marou - Paint My Cup (Early 60's)
TTITLE15=Tania Kernaghan - Dad's Not Gonna Like It
TTITLE16=Buddy Goode - Cougarville
TTITLE17=Felicity Urquhart - Two Wheels
TTITLE18=Wilson Pickers, The - Shake It Down
TTITLE19=Tex Perkins and The Dark Horses - What Do You Want Now
EXTD=
EXTT0=
EXTT1=
EXTT2=
EXTT3=
EXTT4=
EXTT5=
EXTT6=
EXTT7=
EXTT8=
EXTT9=
EXTT10=
EXTT11=
EXTT12=
EXTT13=
EXTT14=
EXTT15=
EXTT16=
EXTT17=
EXTT18=
EXTT19=
PLAYORDER=
